<svg xmlns="http://www.w3.org/2000/svg" width="256" height="256" viewBox="0 0 100 100"><rect width="100" height="100" rx="50" fill="#ddf2f7"></rect><path d="M12.37 72.62L12.37 72.62Q10.97 71.84 10.60 70.97Q10.24 70.10 10.24 69.54L10.24 69.54Q10.24 67.98 11.36 65.34Q12.48 62.71 14.38 59.30Q16.29 55.88 18.64 52.24L18.64 52.24Q16.68 52.07 15.20 52.02Q13.71 51.96 12.14 51.96L12.14 51.96L10.58 51.96Q11.25 50.22 12.84 49.52Q14.44 48.82 16.62 48.82L16.62 48.82Q17.58 48.82 18.58 48.94Q19.59 49.05 20.66 49.22L20.66 49.22Q23.51 44.96 26.42 41.07Q29.34 37.18 31.88 34.10Q34.43 31.02 36.22 29.34L36.22 29.34Q38.18 27.38 39.30 27.38L39.30 27.38Q39.98 27.38 40.82 27.91Q41.66 28.44 42.55 29.34L42.55 29.34Q41.99 29.78 41.12 31.69Q40.26 33.59 39.28 36.48Q38.30 39.36 37.34 42.78Q36.39 46.19 35.58 49.78Q34.77 53.36 34.29 56.58Q33.82 59.80 33.82 62.21L33.82 62.21Q33.82 64.39 34.29 65.54Q34.77 66.69 35.83 66.69L35.83 66.69Q37.23 66.69 39.11 64.70Q40.98 62.71 43.22 58.40L43.22 58.40L43.95 59.13Q42.22 63.61 39.56 66.52Q36.90 69.43 33.98 69.43L33.98 69.43Q31.58 69.43 30.51 67.28Q29.45 65.12 29.45 61.54L29.45 61.54Q29.45 59.91 29.67 57.95Q29.90 55.99 30.34 53.64L30.34 53.64Q27.88 53.25 25.86 53.00Q23.85 52.74 22.11 52.52L22.11 52.52Q19.48 57.39 16.99 62.52Q14.50 67.64 12.37 72.62ZM30.79 51.40L30.79 51.40Q31.58 47.87 32.64 44.20Q33.70 40.54 34.91 37.23Q36.11 33.93 37.23 31.41L37.23 31.41Q35.50 32.53 33.31 35.19Q31.13 37.85 28.69 41.57Q26.26 45.30 23.68 49.78L23.68 49.78Q25.53 50.11 27.35 50.56Q29.17 51.01 30.79 51.40ZM47.59 68.31L47.59 68.31Q46.64 68.31 46.11 67.84Q45.58 67.36 45.58 66.58L45.58 66.58Q45.58 65.96 46.08 65.37Q46.58 64.78 47.37 64.42Q48.15 64.06 48.88 64.06L48.88 64.06Q49.55 64.06 50.03 64.36Q50.50 64.67 50.50 65.57L50.50 65.57Q50.50 66.07 50.11 66.72Q49.72 67.36 49.05 67.84Q48.38 68.31 47.59 68.31ZM65.18 72.62L65.18 72.62Q61.98 72.62 60.36 71.56Q58.74 70.50 58.68 68.03L58.68 68.03Q58.68 67.75 59.07 67.75L59.07 67.75Q59.52 67.75 60.53 68.00Q61.54 68.26 64.45 68.26L64.45 68.26Q69.26 68.26 73.38 67.19Q77.50 66.13 80.52 64.28Q83.54 62.43 85.20 60.11Q86.85 57.78 86.85 55.26L86.85 55.26Q86.85 53.02 85.56 51.65Q84.27 50.28 82.14 49.55Q80.02 48.82 77.52 48.60Q75.03 48.38 72.62 48.38L72.62 48.38Q71.56 48.38 70.47 48.40Q69.38 48.43 68.42 48.43L68.42 48.43Q67.14 52.86 65.93 57.42Q64.73 61.98 63.44 66.35L63.44 66.35Q61.93 66.35 60.89 65.51Q59.86 64.67 59.86 63.50L59.86 63.50Q59.86 62.88 60.11 62.01Q60.36 61.14 60.64 60.30L60.64 60.30Q60.98 59.18 61.82 56.61Q62.66 54.03 63.83 50.56Q65.01 47.09 66.44 43.28Q67.86 39.47 69.38 35.80Q70.89 32.14 72.34 29.28L72.34 29.28Q70.05 29.73 68.48 30.43Q66.91 31.13 66.04 31.69Q65.18 32.25 64.78 32.25L64.78 32.25Q64.45 32.25 64 31.97Q63.55 31.69 63.19 31.27Q62.82 30.85 62.82 30.51L62.82 30.51Q65.68 29.34 68.82 28.38Q71.95 27.43 76.38 27.43L76.38 27.43Q78.28 27.43 80.58 27.74Q82.87 28.05 84.94 28.97Q87.02 29.90 88.36 31.69Q89.70 33.48 89.70 36.39L89.70 36.39Q89.70 39.02 88.56 40.90Q87.41 42.78 85.56 44.04Q83.71 45.30 81.53 46.05Q79.34 46.81 77.22 47.20L77.22 47.20Q81.14 47.54 83.63 48.49Q86.12 49.44 87.44 50.76Q88.75 52.07 89.26 53.50Q89.76 54.93 89.76 56.22L89.76 56.22Q89.76 59.52 88.05 62.15Q86.34 64.78 83.57 66.74Q80.80 68.70 77.52 70.02Q74.25 71.34 71 71.98Q67.75 72.62 65.18 72.62ZM68.82 46.86L68.82 46.86Q71.95 46.75 74.98 46.14Q78 45.52 80.49 44.26Q82.98 43 84.50 40.98Q86.01 38.97 86.01 35.94L86.01 35.94Q86.01 33.14 84.61 31.60Q83.21 30.06 81.00 29.48Q78.78 28.89 76.26 28.89L76.26 28.89Q76.10 28.89 75.90 28.89Q75.70 28.89 75.48 28.89L75.48 28.89Q73.52 32.75 71.90 37.37Q70.27 41.99 68.82 46.86Z" fill="#080808"></path></svg>